<svg width="56" height="29" viewBox="0 0 56 29" fill="none" xmlns="http://www.w3.org/2000/svg">
<rect x="0.5" y="1" width="55" height="27" rx="7.5" fill="#FEC10E"/>
<rect x="0.5" y="1" width="55" height="27" rx="7.5" stroke="#271D04"/>
<path d="M16.67 15.162C16.67 15.798 16.564 16.382 16.352 16.914C16.14 17.446 15.842 17.904 15.458 18.288C15.074 18.672 14.612 18.97 14.072 19.182C13.532 19.394 12.932 19.5 12.272 19.5H8.966V10.824H12.272C12.932 10.824 13.532 10.932 14.072 11.148C14.612 11.36 15.074 11.658 15.458 12.042C15.842 12.422 16.14 12.878 16.352 13.41C16.564 13.942 16.67 14.526 16.67 15.162ZM15.014 15.162C15.014 14.686 14.95 14.26 14.822 13.884C14.698 13.504 14.516 13.184 14.276 12.924C14.04 12.66 13.752 12.458 13.412 12.318C13.076 12.178 12.696 12.108 12.272 12.108H10.586V18.216H12.272C12.696 18.216 13.076 18.146 13.412 18.006C13.752 17.866 14.04 17.666 14.276 17.406C14.516 17.142 14.698 16.822 14.822 16.446C14.95 16.066 15.014 15.638 15.014 15.162ZM20.7169 14.952C21.0209 14.952 21.2849 14.914 21.5089 14.838C21.7369 14.762 21.9229 14.658 22.0669 14.526C22.2149 14.39 22.3249 14.23 22.3969 14.046C22.4689 13.862 22.5049 13.66 22.5049 13.44C22.5049 13 22.3589 12.662 22.0669 12.426C21.7789 12.19 21.3369 12.072 20.7409 12.072H19.7089V14.952H20.7169ZM24.8689 19.5H23.4109C23.1349 19.5 22.9349 19.392 22.8109 19.176L20.9869 16.398C20.9189 16.294 20.8429 16.22 20.7589 16.176C20.6789 16.132 20.5589 16.11 20.3989 16.11H19.7089V19.5H18.0949V10.824H20.7409C21.3289 10.824 21.8329 10.886 22.2529 11.01C22.6769 11.13 23.0229 11.3 23.2909 11.52C23.5629 11.74 23.7629 12.004 23.8909 12.312C24.0189 12.616 24.0829 12.952 24.0829 13.32C24.0829 13.612 24.0389 13.888 23.9509 14.148C23.8669 14.408 23.7429 14.644 23.5789 14.856C23.4189 15.068 23.2189 15.254 22.9789 15.414C22.7429 15.574 22.4729 15.7 22.1689 15.792C22.2729 15.852 22.3689 15.924 22.4569 16.008C22.5449 16.088 22.6249 16.184 22.6969 16.296L24.8689 19.5ZM30.3898 16.224L29.3338 13.338C29.2818 13.21 29.2278 13.058 29.1718 12.882C29.1158 12.706 29.0598 12.516 29.0038 12.312C28.9518 12.516 28.8978 12.708 28.8418 12.888C28.7858 13.064 28.7318 13.218 28.6798 13.35L27.6298 16.224H30.3898ZM33.2398 19.5H31.9918C31.8518 19.5 31.7378 19.466 31.6498 19.398C31.5618 19.326 31.4958 19.238 31.4518 19.134L30.8038 17.364H27.2098L26.5618 19.134C26.5298 19.226 26.4678 19.31 26.3758 19.386C26.2838 19.462 26.1698 19.5 26.0338 19.5H24.7738L28.1878 10.824H29.8318L33.2398 19.5ZM35.7579 12.108V14.676H39.0099V15.966H35.7579V19.5H34.1379V10.824H39.6099V12.108H35.7579ZM46.9948 12.15H44.3788V19.5H42.7648V12.15H40.1488V10.824H46.9948V12.15Z" fill="#271D04"/>
</svg>
